<svg xmlns="http://www.w3.org/2000/svg" version="1.1" xmlns:xlink="http://www.w3.org/1999/xlink" xmlns:svgjs="http://svgjs.com/svgjs" width="512" height="512" x="0" y="0" viewBox="0 0 58 59" style="enable-background:new 0 0 512 512" xml:space="preserve" class=""><g><g xmlns="http://www.w3.org/2000/svg" id="014---Healthy-Living" fill="none" transform="translate(0 -1)"><path id="Shape" d="m27.77 39.36c-1.17 3.01-1.77 7.19-1.77 13.64-3.9242444.9950832-8.0432081.9225783-11.93-.21-12.07-3.79-16.87-18.51-12.45-28.79 2.9429414 2.1373725 6.3423728 3.5615049 9.93 4.16 4.75.76 8.65 1.64 12 4.77 1.865562 1.8043085 3.3069558 4.0005554 4.22 6.43z" fill="#24ae5f" data-original="#24ae5f" data-darkreader-inline-fill="" style="--darkreader-inline-fill:#1d8b4c;" class=""></path><path id="Shape" d="m27 54c-.3664539.0010002-.7041028-.1985196-.88-.52 0-.08-4.41-7.89-14.66-14.86-.344934-.3411362-.3952618-.8806426-.1193759-1.279692.275886-.3990493.7983955-.54252 1.2393759-.340308 10.68 7.27 15.11 15.22 15.3 15.56.127958.2332561.1576916.5078865.0826217.763124-.0750698.2552375-.248754.4700391-.4826217.596876-.1509719.0657834-.3158535.0932637-.48.08z" fill="#4c8056" data-original="#4c8056" data-darkreader-inline-fill="" style="--darkreader-inline-fill:#3d6645;"></path><path id="Shape" d="m41.92 57.59c-3.6629486 1.1863222-7.5181757 1.6648319-11.36 1.41-.19 0-.36-.15-.55-.17v.17c-.506828.0011305-1.0056809-.126163-1.45-.37-1.42-.74-2.56-2.63-2.56-5.63 0-6.45.6-10.63 1.77-13.63.7102433-1.8736276 1.8349549-3.5624044 3.29-4.94 3.85-3.66 8.31-4.68 13.74-5.57 4.1138633-.7015633 8.0032328-2.3669673 11.35-4.86 5.05 12-.41 29.2-14.23 33.59z" fill="#4fba6f" data-original="#4fba6f" data-darkreader-inline-fill="" style="--darkreader-inline-fill:#388e61;"></path><path id="Shape" d="m42.38 16.47-12.67 12.81c-.2300948.2312971-.558554.3358068-.88.28-.46-.07.57.84-13.2-13.09-5.7-5.75-1.51-15.47 6.37-15.47 2.3823538-.01311278 4.6675245.94355426 6.33 2.65l.71.7.71-.7c1.5418889-1.57786809 3.6175131-2.52295469 5.82-2.65 8.18-.42 12.57 9.61 6.81 15.47z" fill="#df4d60" data-original="#df4d60" data-darkreader-inline-fill="" style="--darkreader-inline-fill:#961b2b;" class=""></path><path id="Shape" d="m40.71 16.47-11.09 12.81c-.1880354.2368467-.4947803.3455664-.79.28-.38-.1.5.82-11.53-13.09-4.87-5.62-1.52-15.06 5.13-15.47 2.2160878.11066416 4.3088114 1.05346116 5.86 2.64l.71.7.71-.7c1.5534762-1.58326249 3.6448506-2.52545162 5.86-2.64 6.78.41 9.89 9.93 5.14 15.47z" fill="#ff5364" data-original="#ff5364" data-darkreader-inline-fill="" style="--darkreader-inline-fill:#9a000f;" class=""></path><path id="Shape" d="m18 14.1c-.3147573 0-.6111456-.1481942-.8-.4-1.7807018-2.4237349-1.5436491-5.78056986.56-7.93.2518722-.25365858.619937-.35367653.9655479-.26237805.3456109.09129847.6162614.36004296.71.70500001.0937387.34495704-.0036757.71371947-.2555479.96737804-1.4137902 1.44434601-1.574584 3.6996911-.38 5.33.3313708.4418278.2418278 1.0686292-.2 1.4-.174338.1262595-.3847634.1928942-.6.19z" fill="#ffffff" data-original="#ffffff" data-darkreader-inline-fill="" style="--darkreader-inline-fill:#181a1b;"></path><path id="Shape" d="m23 6.12h-.21c-.2580129-.06943736-.5230058-.10968943-.79-.12-.5522847 0-1-.44771525-1-1s.4477153-1 1-1c.4030694.007571.8046604.05107669 1.2.13.5522847.05798991.9529899.55271526.895 1.105s-.5527153.95298989-1.105.895z" fill="#ffffff" data-original="#ffffff" data-darkreader-inline-fill="" style="--darkreader-inline-fill:#e8e6e3;"></path><path id="Shape" d="m46 40.91c-6.7058816 4.5026051-12.0466966 10.7600755-15.44 18.09h-.56c-.506828.0011305-1.0056809-.126163-1.45-.37-.0044243-.0465618-.0044243-.0934382 0-.14.16-.44 4-10.73 16.25-19.22.4528735-.3313708 1.0886292-.2328735 1.42.22s.2328735 1.0886292-.22 1.42z" fill="#4c8056" data-original="#4c8056" data-darkreader-inline-fill="" style="--darkreader-inline-fill:#3d6645;"></path></g></g></svg>